<svg xmlns="http://www.w3.org/2000/svg" viewBox="0 0 166.82 172.02"><defs><style>.cls-1,.cls-10,.cls-11,.cls-12,.cls-13,.cls-14,.cls-15,.cls-16,.cls-17,.cls-18,.cls-19,.cls-2,.cls-20,.cls-21,.cls-22,.cls-23,.cls-24,.cls-25,.cls-26,.cls-27,.cls-28,.cls-29,.cls-3,.cls-30,.cls-31,.cls-32,.cls-33,.cls-34,.cls-35,.cls-36,.cls-37,.cls-38,.cls-39,.cls-4,.cls-40,.cls-41,.cls-42,.cls-5,.cls-6,.cls-7,.cls-8,.cls-9{fill:#afafaf;}.cls-1{opacity:0;}.cls-2{opacity:0.02;}.cls-3{opacity:0.05;}.cls-4{opacity:0.07;}.cls-5{opacity:0.1;}.cls-6{opacity:0.12;}.cls-7{opacity:0.15;}.cls-8{opacity:0.17;}.cls-9{opacity:0.2;}.cls-10{opacity:0.22;}.cls-11{opacity:0.24;}.cls-12{opacity:0.27;}.cls-13{opacity:0.29;}.cls-14{opacity:0.32;}.cls-15{opacity:0.34;}.cls-16{opacity:0.37;}.cls-17{opacity:0.39;}.cls-18{opacity:0.41;}.cls-19{opacity:0.44;}.cls-20{opacity:0.46;}.cls-21{opacity:0.49;}.cls-22{opacity:0.51;}.cls-23{opacity:0.54;}.cls-24{opacity:0.56;}.cls-25{opacity:0.59;}.cls-26{opacity:0.61;}.cls-27{opacity:0.63;}.cls-28{opacity:0.66;}.cls-29{opacity:0.68;}.cls-30{opacity:0.71;}.cls-31{opacity:0.73;}.cls-32{opacity:0.76;}.cls-33{opacity:0.78;}.cls-34{opacity:0.8;}.cls-35{opacity:0.83;}.cls-36{opacity:0.85;}.cls-37{opacity:0.88;}.cls-38{opacity:0.9;}.cls-39{opacity:0.93;}.cls-40{opacity:0.95;}.cls-41{opacity:0.98;}.cls-43{fill:#3d83d9;}.cls-44{fill:#fff;}</style></defs><title>dfzRecurso 5</title><g id="Capa_2" data-name="Capa 2"><g id="OBJECTS"><path class="cls-1" d="M166.82,100.21A71.81,71.81,0,1,0,95,172,71.81,71.81,0,0,0,166.82,100.21Z"/><path class="cls-2" d="M166.25,99.52a71.81,71.81,0,1,0-71.8,71.81A71.8,71.8,0,0,0,166.25,99.52Z"/><path class="cls-3" d="M165.69,98.83a71.81,71.81,0,1,0-71.81,71.81A71.8,71.8,0,0,0,165.69,98.83Z"/><path class="cls-4" d="M165.12,98.13a71.81,71.81,0,1,0-71.8,71.81A71.81,71.81,0,0,0,165.12,98.13Z"/><path class="cls-5" d="M164.56,97.44a71.81,71.81,0,1,0-71.81,71.81A71.81,71.81,0,0,0,164.56,97.44Z"/><path class="cls-6" d="M164,96.75a71.81,71.81,0,1,0-71.8,71.81A71.81,71.81,0,0,0,164,96.75Z"/><path class="cls-7" d="M163.43,96.06a71.81,71.81,0,1,0-71.81,71.8A71.8,71.8,0,0,0,163.43,96.06Z"/><path class="cls-8" d="M162.86,95.36a71.81,71.81,0,1,0-71.81,71.81A71.81,71.81,0,0,0,162.86,95.36Z"/><path class="cls-9" d="M162.29,94.67a71.81,71.81,0,1,0-71.8,71.81A71.81,71.81,0,0,0,162.29,94.67Z"/><path class="cls-10" d="M161.73,94a71.81,71.81,0,1,0-71.81,71.81A71.81,71.81,0,0,0,161.73,94Z"/><path class="cls-11" d="M161.16,93.28a71.81,71.81,0,1,0-71.8,71.81A71.81,71.81,0,0,0,161.16,93.28Z"/><path class="cls-12" d="M160.6,92.59A71.81,71.81,0,1,0,88.79,164.4,71.81,71.81,0,0,0,160.6,92.59Z"/><path class="cls-13" d="M160,91.9a71.81,71.81,0,1,0-71.8,71.81A71.81,71.81,0,0,0,160,91.9Z"/><path class="cls-14" d="M159.46,91.21A71.81,71.81,0,1,0,87.66,163,71.8,71.8,0,0,0,159.46,91.21Z"/><path class="cls-15" d="M158.9,90.51a71.81,71.81,0,1,0-71.81,71.81A71.81,71.81,0,0,0,158.9,90.51Z"/><path class="cls-16" d="M158.33,89.82a71.81,71.81,0,1,0-71.8,71.81A71.81,71.81,0,0,0,158.33,89.82Z"/><path class="cls-17" d="M157.77,89.13A71.81,71.81,0,1,0,86,160.94,71.81,71.81,0,0,0,157.77,89.13Z"/><path class="cls-18" d="M157.2,88.44a71.81,71.81,0,1,0-71.8,71.8A71.8,71.8,0,0,0,157.2,88.44Z"/><path class="cls-19" d="M156.63,87.74a71.81,71.81,0,1,0-71.8,71.81A71.8,71.8,0,0,0,156.63,87.74Z"/><path class="cls-20" d="M156.07,87.05a71.81,71.81,0,1,0-71.81,71.81A71.81,71.81,0,0,0,156.07,87.05Z"/><path class="cls-21" d="M155.5,86.36a71.81,71.81,0,1,0-71.8,71.81A71.81,71.81,0,0,0,155.5,86.36Z"/><path class="cls-22" d="M154.94,85.66a71.81,71.81,0,1,0-71.81,71.81A71.81,71.81,0,0,0,154.94,85.66Z"/><path class="cls-23" d="M154.37,85a71.81,71.81,0,1,0-71.8,71.81A71.81,71.81,0,0,0,154.37,85Z"/><path class="cls-24" d="M153.81,84.28A71.81,71.81,0,1,0,82,156.09,71.81,71.81,0,0,0,153.81,84.28Z"/><path class="cls-25" d="M153.24,83.59A71.81,71.81,0,1,0,81.43,155.4,71.8,71.8,0,0,0,153.24,83.59Z"/><path class="cls-26" d="M152.67,82.89a71.81,71.81,0,1,0-71.8,71.81A71.81,71.81,0,0,0,152.67,82.89Z"/><path class="cls-27" d="M152.11,82.2A71.81,71.81,0,1,0,80.3,154,71.81,71.81,0,0,0,152.11,82.2Z"/><path class="cls-28" d="M151.54,81.51a71.81,71.81,0,1,0-71.8,71.81A71.81,71.81,0,0,0,151.54,81.51Z"/><path class="cls-29" d="M151,80.82a71.81,71.81,0,1,0-71.81,71.8A71.8,71.8,0,0,0,151,80.82Z"/><path class="cls-30" d="M150.41,80.12A71.81,71.81,0,1,0,78.6,151.93,71.81,71.81,0,0,0,150.41,80.12Z"/><path class="cls-31" d="M149.84,79.43A71.81,71.81,0,1,0,78,151.24,71.81,71.81,0,0,0,149.84,79.43Z"/><path class="cls-32" d="M149.28,78.74a71.81,71.81,0,1,0-71.81,71.81A71.81,71.81,0,0,0,149.28,78.74Z"/><path class="cls-33" d="M148.71,78a71.81,71.81,0,1,0-71.8,71.81A71.81,71.81,0,0,0,148.71,78Z"/><path class="cls-34" d="M148.15,77.35a71.81,71.81,0,1,0-71.81,71.81A71.81,71.81,0,0,0,148.15,77.35Z"/><path class="cls-35" d="M147.58,76.66a71.81,71.81,0,1,0-71.8,71.81A71.81,71.81,0,0,0,147.58,76.66Z"/><path class="cls-36" d="M147,76a71.81,71.81,0,1,0-71.8,71.81A71.79,71.79,0,0,0,147,76Z"/><path class="cls-37" d="M146.45,75.27a71.81,71.81,0,1,0-71.81,71.81A71.81,71.81,0,0,0,146.45,75.27Z"/><path class="cls-38" d="M145.88,74.58a71.81,71.81,0,1,0-71.8,71.81A71.81,71.81,0,0,0,145.88,74.58Z"/><path class="cls-39" d="M145.32,73.89A71.81,71.81,0,1,0,73.51,145.7,71.81,71.81,0,0,0,145.32,73.89Z"/><path class="cls-40" d="M144.75,73.2A71.81,71.81,0,1,0,73,145,71.8,71.8,0,0,0,144.75,73.2Z"/><path class="cls-41" d="M144.19,72.5a71.81,71.81,0,1,0-71.81,71.81A71.81,71.81,0,0,0,144.19,72.5Z"/><path class="cls-42" d="M143.62,71.81a71.81,71.81,0,1,0-71.81,71.81A71.81,71.81,0,0,0,143.62,71.81Z"/><path class="cls-43" d="M143.62,71.81a71.81,71.81,0,1,0-71.81,71.81A71.81,71.81,0,0,0,143.62,71.81Z"/><rect class="cls-44" x="37.62" y="54.28" width="16.62" height="47.51"/><path class="cls-44" d="M45.93,30.53a8.32,8.32,0,1,0,8.31,8.31A8.33,8.33,0,0,0,45.93,30.53Z"/><path class="cls-44" d="M108.88,68.88c-1.12-9-5.6-14.6-17.71-14.6-8.59,0-12,1.35-14,5.09h0V54.28H63.74v47.51H77.59V76.92c0-6.2,1.17-10.89,8.85-10.89s8.17,5.77,8.17,11.3v24.46h14.27S109.14,71,108.88,68.88Z"/></g></g></svg>