<svg xmlns="http://www.w3.org/2000/svg" viewBox="0 0 166.81 172.02"><defs><style>.cls-1,.cls-10,.cls-11,.cls-12,.cls-13,.cls-14,.cls-15,.cls-16,.cls-17,.cls-18,.cls-19,.cls-2,.cls-20,.cls-21,.cls-22,.cls-23,.cls-24,.cls-25,.cls-26,.cls-27,.cls-28,.cls-29,.cls-3,.cls-30,.cls-31,.cls-32,.cls-33,.cls-34,.cls-35,.cls-36,.cls-37,.cls-38,.cls-39,.cls-4,.cls-40,.cls-41,.cls-42,.cls-5,.cls-6,.cls-7,.cls-8,.cls-9{fill:#afafaf;}.cls-1{opacity:0;}.cls-2{opacity:0.02;}.cls-3{opacity:0.05;}.cls-4{opacity:0.07;}.cls-5{opacity:0.1;}.cls-6{opacity:0.12;}.cls-7{opacity:0.15;}.cls-8{opacity:0.17;}.cls-9{opacity:0.2;}.cls-10{opacity:0.22;}.cls-11{opacity:0.24;}.cls-12{opacity:0.27;}.cls-13{opacity:0.29;}.cls-14{opacity:0.32;}.cls-15{opacity:0.34;}.cls-16{opacity:0.37;}.cls-17{opacity:0.39;}.cls-18{opacity:0.41;}.cls-19{opacity:0.44;}.cls-20{opacity:0.46;}.cls-21{opacity:0.49;}.cls-22{opacity:0.51;}.cls-23{opacity:0.54;}.cls-24{opacity:0.56;}.cls-25{opacity:0.59;}.cls-26{opacity:0.61;}.cls-27{opacity:0.63;}.cls-28{opacity:0.66;}.cls-29{opacity:0.68;}.cls-30{opacity:0.71;}.cls-31{opacity:0.73;}.cls-32{opacity:0.76;}.cls-33{opacity:0.78;}.cls-34{opacity:0.8;}.cls-35{opacity:0.83;}.cls-36{opacity:0.85;}.cls-37{opacity:0.88;}.cls-38{opacity:0.9;}.cls-39{opacity:0.93;}.cls-40{opacity:0.95;}.cls-41{opacity:0.98;}.cls-43{fill:#01a7ff;}.cls-44{fill:#fff;}</style></defs><title>dfzRecurso 6</title><g id="Capa_2" data-name="Capa 2"><g id="OBJECTS"><path class="cls-1" d="M166.81,100.21A71.81,71.81,0,1,0,95,172,71.81,71.81,0,0,0,166.81,100.21Z"/><path class="cls-2" d="M166.24,99.52a71.8,71.8,0,1,0-71.8,71.81A71.8,71.8,0,0,0,166.24,99.52Z"/><path class="cls-3" d="M165.68,98.82a71.81,71.81,0,1,0-71.8,71.81A71.81,71.81,0,0,0,165.68,98.82Z"/><path class="cls-4" d="M165.11,98.13a71.81,71.81,0,1,0-71.8,71.81A71.81,71.81,0,0,0,165.11,98.13Z"/><path class="cls-5" d="M164.55,97.44a71.81,71.81,0,1,0-71.81,71.81A71.81,71.81,0,0,0,164.55,97.44Z"/><path class="cls-6" d="M164,96.75a71.81,71.81,0,1,0-71.8,71.81A71.81,71.81,0,0,0,164,96.75Z"/><path class="cls-7" d="M163.42,96.05a71.81,71.81,0,1,0-71.81,71.81A71.81,71.81,0,0,0,163.42,96.05Z"/><path class="cls-8" d="M162.85,95.36a71.81,71.81,0,1,0-71.8,71.81A71.81,71.81,0,0,0,162.85,95.36Z"/><path class="cls-9" d="M162.28,94.67a71.81,71.81,0,1,0-71.8,71.81A71.8,71.8,0,0,0,162.28,94.67Z"/><path class="cls-10" d="M161.72,94a71.81,71.81,0,1,0-71.81,71.81A71.81,71.81,0,0,0,161.72,94Z"/><path class="cls-11" d="M161.15,93.28a71.81,71.81,0,1,0-71.8,71.81A71.81,71.81,0,0,0,161.15,93.28Z"/><path class="cls-12" d="M160.59,92.59A71.81,71.81,0,1,0,88.78,164.4,71.81,71.81,0,0,0,160.59,92.59Z"/><path class="cls-13" d="M160,91.9a71.81,71.81,0,1,0-71.8,71.81A71.81,71.81,0,0,0,160,91.9Z"/><path class="cls-14" d="M159.45,91.2A71.81,71.81,0,1,0,87.65,163,71.8,71.8,0,0,0,159.45,91.2Z"/><path class="cls-15" d="M158.89,90.51a71.81,71.81,0,1,0-71.81,71.81A71.82,71.82,0,0,0,158.89,90.51Z"/><path class="cls-16" d="M158.32,89.82a71.81,71.81,0,1,0-71.8,71.81A71.81,71.81,0,0,0,158.32,89.82Z"/><path class="cls-17" d="M157.76,89.13A71.81,71.81,0,1,0,86,160.94,71.81,71.81,0,0,0,157.76,89.13Z"/><path class="cls-18" d="M157.19,88.43a71.81,71.81,0,1,0-71.8,71.81A71.81,71.81,0,0,0,157.19,88.43Z"/><path class="cls-19" d="M156.62,87.74a71.8,71.8,0,1,0-71.8,71.81A71.8,71.8,0,0,0,156.62,87.74Z"/><path class="cls-20" d="M156.06,87.05a71.81,71.81,0,1,0-71.8,71.81A71.81,71.81,0,0,0,156.06,87.05Z"/><path class="cls-21" d="M155.49,86.36a71.81,71.81,0,1,0-71.8,71.81A71.81,71.81,0,0,0,155.49,86.36Z"/><path class="cls-22" d="M154.93,85.66a71.81,71.81,0,1,0-71.81,71.81A71.82,71.82,0,0,0,154.93,85.66Z"/><path class="cls-23" d="M154.36,85a71.81,71.81,0,1,0-71.8,71.81A71.81,71.81,0,0,0,154.36,85Z"/><path class="cls-24" d="M153.8,84.28A71.81,71.81,0,1,0,82,156.09,71.81,71.81,0,0,0,153.8,84.28Z"/><path class="cls-25" d="M153.23,83.58a71.81,71.81,0,1,0-71.8,71.81A71.81,71.81,0,0,0,153.23,83.58Z"/><path class="cls-26" d="M152.66,82.89a71.81,71.81,0,1,0-71.8,71.81A71.81,71.81,0,0,0,152.66,82.89Z"/><path class="cls-27" d="M152.1,82.2A71.81,71.81,0,1,0,80.29,154,71.81,71.81,0,0,0,152.1,82.2Z"/><path class="cls-28" d="M151.53,81.51a71.81,71.81,0,1,0-71.8,71.81A71.81,71.81,0,0,0,151.53,81.51Z"/><path class="cls-29" d="M151,80.81a71.81,71.81,0,1,0-71.81,71.81A71.81,71.81,0,0,0,151,80.81Z"/><path class="cls-30" d="M150.4,80.12a71.81,71.81,0,1,0-71.8,71.81A71.81,71.81,0,0,0,150.4,80.12Z"/><path class="cls-31" d="M149.83,79.43A71.81,71.81,0,1,0,78,151.24,71.8,71.8,0,0,0,149.83,79.43Z"/><path class="cls-32" d="M149.27,78.74a71.81,71.81,0,1,0-71.81,71.81A71.81,71.81,0,0,0,149.27,78.74Z"/><path class="cls-33" d="M148.7,78a71.81,71.81,0,1,0-71.8,71.81A71.81,71.81,0,0,0,148.7,78Z"/><path class="cls-34" d="M148.14,77.35a71.81,71.81,0,1,0-71.81,71.81A71.81,71.81,0,0,0,148.14,77.35Z"/><path class="cls-35" d="M147.57,76.66a71.81,71.81,0,1,0-71.8,71.81A71.81,71.81,0,0,0,147.57,76.66Z"/><path class="cls-36" d="M147,76a71.8,71.8,0,1,0-71.8,71.81A71.8,71.8,0,0,0,147,76Z"/><path class="cls-37" d="M146.44,75.27a71.81,71.81,0,1,0-71.8,71.81A71.81,71.81,0,0,0,146.44,75.27Z"/><path class="cls-38" d="M145.87,74.58a71.81,71.81,0,1,0-71.8,71.81A71.81,71.81,0,0,0,145.87,74.58Z"/><path class="cls-39" d="M145.31,73.89A71.81,71.81,0,1,0,73.5,145.7,71.81,71.81,0,0,0,145.31,73.89Z"/><path class="cls-40" d="M144.74,73.19A71.81,71.81,0,1,0,72.94,145,71.81,71.81,0,0,0,144.74,73.19Z"/><path class="cls-41" d="M144.17,72.5a71.8,71.8,0,1,0-71.8,71.81A71.8,71.8,0,0,0,144.17,72.5Z"/><path class="cls-42" d="M143.61,71.81a71.81,71.81,0,1,0-71.8,71.81A71.81,71.81,0,0,0,143.61,71.81Z"/><path class="cls-43" d="M143.61,71.81a71.81,71.81,0,1,0-71.8,71.81A71.81,71.81,0,0,0,143.61,71.81Z"/><path class="cls-44" d="M109.52,80.3a36.42,36.42,0,0,0,.88-8.07c0-1,0-1.9-.12-2.84a37.94,37.94,0,0,0-38-34.8,39.06,39.06,0,0,0-6.53.55,22.24,22.24,0,0,0-11.77-3.35A22,22,0,0,0,31.79,53.62a21.37,21.37,0,0,0,3,11,36,36,0,0,0-.62,4.16c-.1,1.13-.16,2.26-.16,3.41,0,20.79,17.09,37.64,38.19,37.64a40.18,40.18,0,0,0,7-.62,22.43,22.43,0,0,0,10.46,2.58A22,22,0,0,0,111.83,90,21.44,21.44,0,0,0,109.52,80.3Z"/><path id="path78" class="cls-43" d="M61.62,47.92h0a15.7,15.7,0,0,0-7.23,5,12.09,12.09,0,0,0-2.53,7.53,11.61,11.61,0,0,0,2.41,7.46,16.13,16.13,0,0,0,6.4,4.69,54.83,54.83,0,0,0,9.75,2.92c2.84.59,5.14,1.16,6.83,1.69a10.1,10.1,0,0,1,4,2.19A4.58,4.58,0,0,1,82.66,83a5.45,5.45,0,0,1-2.75,4.64,13.09,13.09,0,0,1-7.5,2,12.81,12.81,0,0,1-5.41-1,8.17,8.17,0,0,1-3.12-2.41,18.67,18.67,0,0,1-2.14-3.79,8.54,8.54,0,0,0-2.18-3.19,4.93,4.93,0,0,0-3.28-1.14,5.47,5.47,0,0,0-3.89,1.44A4.69,4.69,0,0,0,50.84,83a11.89,11.89,0,0,0,2.38,6.73,17.49,17.49,0,0,0,6.13,5.44C62.85,97,67.34,98,72.68,98a30.51,30.51,0,0,0,11.64-2,17,17,0,0,0,7.56-5.74,14.12,14.12,0,0,0,2.61-8.31A13.23,13.23,0,0,0,93,75.32a12.61,12.61,0,0,0-4.2-4.43A26.64,26.64,0,0,0,82.41,68c-2.45-.78-5.22-1.51-8.24-2.15-2.38-.55-4.11-1-5.15-1.26a16,16,0,0,1-3-1.17,6.69,6.69,0,0,1-2.22-1.68,3.29,3.29,0,0,1-.75-2.17A4.28,4.28,0,0,1,65.37,56a11.62,11.62,0,0,1,6.45-1.59c2.88,0,5,.48,6.22,1.43A12.26,12.26,0,0,1,81.38,60a12.24,12.24,0,0,0,2.22,3,4.73,4.73,0,0,0,3.21,1,5.35,5.35,0,0,0,5.35-5.19A9,9,0,0,0,91,54.48a13.53,13.53,0,0,0-3.62-4.07,19.45,19.45,0,0,0-6.15-3.07,29.53,29.53,0,0,0-8.69-1.14,31.61,31.61,0,0,0-10.92,1.72"/></g></g></svg>