<?xml version="1.0" encoding="UTF-8" standalone="no"?>
<svg
   xmlns:dc="http://purl.org/dc/elements/1.1/"
   xmlns:cc="http://creativecommons.org/ns#"
   xmlns:rdf="http://www.w3.org/1999/02/22-rdf-syntax-ns#"
   xmlns:svg="http://www.w3.org/2000/svg"
   xmlns="http://www.w3.org/2000/svg"
   xmlns:sodipodi="http://sodipodi.sourceforge.net/DTD/sodipodi-0.dtd"
   xmlns:inkscape="http://www.inkscape.org/namespaces/inkscape"
   width="210mm"
   height="297mm"
   viewBox="0 0 210 297"
   version="1.1"
   id="svg145"
   inkscape:version="1.0.1 (3bc2e813f5, 2020-09-07)"
   sodipodi:docname="iconInProgress.svg">
  <defs
     id="defs139" />
  <sodipodi:namedview
     id="base"
     pagecolor="#ffffff"
     bordercolor="#666666"
     borderopacity="1.0"
     inkscape:pageopacity="0.0"
     inkscape:pageshadow="2"
     inkscape:zoom="0.35"
     inkscape:cx="389.44063"
     inkscape:cy="519.09276"
     inkscape:document-units="mm"
     inkscape:current-layer="layer1"
     inkscape:document-rotation="0"
     showgrid="false"
     inkscape:window-width="1343"
     inkscape:window-height="1208"
     inkscape:window-x="707"
     inkscape:window-y="58"
     inkscape:window-maximized="0" />
  <metadata
     id="metadata142">
    <rdf:RDF>
      <cc:Work
         rdf:about="">
        <dc:format>image/svg+xml</dc:format>
        <dc:type
           rdf:resource="http://purl.org/dc/dcmitype/StillImage" />
        <dc:title />
      </cc:Work>
    </rdf:RDF>
  </metadata>
  <g
     inkscape:label="Capa 1"
     inkscape:groupmode="layer"
     id="layer1">
    <path
       style="fill:#ffffff;stroke-width:1.87627"
       d="m 56.495304,237.22291 c -22.222965,-11.33145 -22.1256,-11.158 -15.877984,-28.28797 5.146744,-14.11144 5.146744,-14.11144 0.32266,-21.40135 -4.573401,-6.91095 -5.467346,-7.35885 -17.19245,-8.61452 -6.80252,-0.72851 -13.592063,-2.54838 -15.0878573,-4.04424 -2.070554,-2.07056 -2.7197741,-8.04622 -2.7197741,-25.03493 0,-25.35993 -0.8512546,-23.9961 17.4288084,-27.92171 9.313451,-2.00006 11.522784,-3.33126 15.498095,-9.33834 4.636161,-7.00576 4.636161,-7.00576 0.86487,-17.967401 -4.629849,-13.456829 -4.738419,-18.347714 -0.48789,-21.978978 6.463195,-5.521596 32.563256,-20.291792 35.857152,-20.291792 1.867668,0 7.750508,5.413416 13.253376,12.195797 13.36295,16.470075 16.71067,16.470075 31.17058,0 5.88901,-6.707708 12.1464,-12.195797 13.90536,-12.195797 3.70102,0 33.45426,15.68336 37.5997,19.819291 2.47214,2.46654 2.31074,4.16624 -1.40722,14.819404 -5.22801,14.979926 -5.21879,15.526106 0.4028,23.799316 4.07033,5.99006 6.01607,7.04015 16.82312,9.0793 6.72126,1.26816 13.25897,3.55719 14.52827,5.08668 2.54781,3.06988 4.5822,33.32018 2.73566,40.6774 -1.1764,4.68735 -3.88404,6.02608 -21.20427,10.48445 -5.85299,1.50658 -8.89081,3.71265 -11.96743,8.69069 -4.12324,6.67155 -4.12324,6.67155 0.80815,19.24088 2.71232,6.91321 4.93144,13.62929 4.93144,14.92468 0,3.16285 -33.66637,24.70774 -38.65228,24.73567 -2.3981,0.0142 -7.64201,-4.01842 -13.39315,-10.29738 -8.47085,-9.2485 -10.23917,-10.31952 -17.03792,-10.31952 -6.93308,0 -8.428948,0.96905 -17.377687,11.25764 -6.322864,7.26957 -11.18744,11.22388 -13.731842,11.16269 -2.16714,-0.0497 -11.163676,-3.77825 -19.992358,-8.27996 z m 26.553627,-19.76919 c 7.910492,-9.38138 7.910492,-9.38138 24.357289,-9.38138 16.44671,0 16.44671,0 23.97354,8.80563 7.52677,8.80556 7.52677,8.80556 13.86736,5.39098 13.37383,-7.20234 13.25051,-6.95776 8.97708,-17.79948 -4.94269,-12.53998 -4.81151,-15.49824 1.11101,-25.04755 8.05451,-12.98681 11.84176,-16.08364 22.61881,-18.49543 10.14677,-2.27074 10.14677,-2.27074 9.5964,-13.61078 -0.5503,-11.34004 -0.5503,-11.34004 -10.97923,-13.42223 -5.7359,-1.14519 -11.4223,-2.69623 -12.63657,-3.44665 -1.21419,-0.75041 -5.58286,-7.14361 -9.70815,-14.20702 -7.50043,-12.84258 -7.50043,-12.84258 -3.78087,-23.653878 2.0458,-5.94623 3.71966,-11.379112 3.71966,-12.07315 0,-0.69425 -4.23684,-3.246242 -9.41518,-5.671679 -9.41521,-4.409873 -9.41521,-4.409873 -18.91283,6.246226 -9.49761,10.656072 -9.49761,10.656072 -22.326,10.656072 -12.828393,0 -12.828393,0 -22.103977,-10.57452 -9.27559,-10.574619 -9.27559,-10.574619 -18.91624,-5.159792 -5.3024,2.978185 -9.641572,5.915879 -9.642565,6.528295 -10e-4,0.612699 1.686695,6.021612 3.750584,12.020461 2.063959,5.998845 3.752569,11.915365 3.752569,13.147855 0,1.23242 -4.171672,7.75149 -9.270406,14.48679 -7.779791,10.27689 -10.419644,12.44984 -16.417429,13.51377 -13.794948,2.44711 -13.716304,2.37287 -13.685174,12.92086 0.01419,5.34821 0.648866,10.66246 1.407223,11.80949 0.758144,1.14704 6.383416,2.83565 12.500622,3.75257 11.122119,1.66706 11.122119,1.66706 19.630411,15.47945 8.508291,13.81239 8.508291,13.81239 4.396186,25.103 -2.261667,6.20982 -3.652792,12.0338 -3.091435,12.94207 1.316807,2.13061 14.168454,8.93023 17.083171,9.03844 1.228519,0.0425 5.793347,-4.13869 10.144141,-9.29842 z m 10.70635,-23.22292 c -19.862443,-5.44118 -32.61169,-19.21521 -35.158787,-37.98501 -3.324461,-24.4981 10.222926,-45.78486 33.467624,-52.58703 35.139792,-10.282984 67.930792,22.53393 57.695772,57.7413 -7.13263,24.53526 -32.34145,39.31308 -56.004609,32.83074 z m 26.522789,-17.99676 c 14.48012,-7.38721 20.00094,-25.99093 12.41701,-41.84231 -4.87159,-10.18223 -12.75584,-15.09991 -25.71124,-16.03705 -9.129567,-0.66021 -12.144351,-0.0213 -19.110392,4.06296 -17.065167,10.00083 -19.655948,33.60186 -5.356225,48.79326 2.772173,2.94507 6.728976,6.05778 8.792941,6.91712 6.929954,2.88528 21.462066,1.93518 28.967906,-1.89398 z"
       id="path80" />
  </g>
</svg>
