<?xml version="1.0" encoding="UTF-8" standalone="no"?>
<svg
   xmlns:dc="http://purl.org/dc/elements/1.1/"
   xmlns:cc="http://creativecommons.org/ns#"
   xmlns:rdf="http://www.w3.org/1999/02/22-rdf-syntax-ns#"
   xmlns:svg="http://www.w3.org/2000/svg"
   xmlns="http://www.w3.org/2000/svg"
   xmlns:sodipodi="http://sodipodi.sourceforge.net/DTD/sodipodi-0.dtd"
   xmlns:inkscape="http://www.inkscape.org/namespaces/inkscape"
   width="210mm"
   height="297mm"
   viewBox="0 0 210 297"
   version="1.1"
   id="svg145"
   inkscape:version="1.0.1 (3bc2e813f5, 2020-09-07)"
   sodipodi:docname="iconToDo.svg">
  <defs
     id="defs139" />
  <sodipodi:namedview
     id="base"
     pagecolor="#ffffff"
     bordercolor="#666666"
     borderopacity="1.0"
     inkscape:pageopacity="0.0"
     inkscape:pageshadow="2"
     inkscape:zoom="0.7"
     inkscape:cx="403.01056"
     inkscape:cy="327.00402"
     inkscape:document-units="mm"
     inkscape:current-layer="layer1"
     inkscape:document-rotation="0"
     showgrid="false"
     inkscape:window-width="1343"
     inkscape:window-height="1208"
     inkscape:window-x="707"
     inkscape:window-y="58"
     inkscape:window-maximized="0" />
  <metadata
     id="metadata142">
    <rdf:RDF>
      <cc:Work
         rdf:about="">
        <dc:format>image/svg+xml</dc:format>
        <dc:type
           rdf:resource="http://purl.org/dc/dcmitype/StillImage" />
        <dc:title />
      </cc:Work>
    </rdf:RDF>
  </metadata>
  <g
     inkscape:label="Capa 1"
     inkscape:groupmode="layer"
     id="layer1">
    <rect
       style="fill:#f4b533;fill-opacity:1;stroke:none;stroke-width:2.3683"
       id="rect104"
       width="91.348854"
       height="30.872528"
       x="59.104877"
       y="38.233429" />
    <path
       style="fill:#ffffff;stroke-width:2.3683"
       d="M 27.10919,267.12953 C 22.632671,266.21285 16.065182,261.96333 11.607371,257.09896 3.8726628,248.659 3.8726628,248.659 3.8726628,155.98169 c 0,-92.677217 0,-92.677217 9.1945382,-101.871755 8.193718,-8.193719 10.4655,-9.194627 20.869417,-9.194627 10.211379,0 12.32956,-0.885261 16.898722,-7.065795 9.838299,-13.307106 15.533238,-14.642964 58.88908,-13.813826 39.16737,0.749204 39.16737,0.749204 48.09401,10.814323 8.12873,9.165715 9.92807,10.065298 20.13283,10.065298 9.85969,0 12.31121,1.10492 20.40092,9.194627 9.19453,9.194538 9.19453,9.194538 9.19453,102.115675 0,92.92104 0,92.92104 -9.19453,102.11567 -5.05709,5.057 -11.18499,9.25299 -13.6178,9.32442 -35.73267,1.04871 -151.81344,0.65343 -157.62519,-0.53617 z m 159.03346,-19.87164 c 1.70903,-1.70903 2.31636,-31.32203 1.89449,-92.36375 -0.6212,-89.848236 -0.6212,-89.848236 -12.59666,-90.54821 -10.54964,-0.616729 -12.33421,-0.02685 -14.98749,4.927653 -6.36582,11.894717 -13.14822,13.534553 -55.97944,13.534553 -39.582257,0 -39.582257,0 -49.16921,-9.586953 -8.778402,-8.778313 -10.502647,-9.527428 -20.444062,-8.881071 -10.85702,0.706239 -10.85702,0.706239 -10.85702,91.778708 0,91.07292 0,91.07292 5.920685,92.53114 10.622412,2.61622 153.483617,1.3432 156.218707,-1.39207 z M 48.870402,201.22335 c 0,-9.47319 0,-9.47319 9.473184,-9.47319 9.473274,0 9.473274,0 9.473274,9.47319 0,9.47318 0,9.47318 -9.473274,9.47318 -9.473184,0 -9.473184,0 -9.473184,-9.47318 z m 37.892828,0 c 0,-9.47319 0,-9.47319 37.89292,-9.47319 37.89283,0 37.89283,0 37.89283,9.47319 0,9.47318 0,9.47318 -37.89283,9.47318 -37.89292,0 -37.89292,0 -37.89292,-9.47318 z M 48.870402,163.33052 c 0,-9.47328 0,-9.47328 9.473184,-9.47328 9.473274,0 9.473274,0 9.473274,9.47328 0,9.47318 0,9.47318 -9.473274,9.47318 -9.473184,0 -9.473184,0 -9.473184,-9.47318 z m 37.892828,0 c 0,-9.47328 0,-9.47328 37.89292,-9.47328 37.89283,0 37.89283,0 37.89283,9.47328 0,9.47318 0,9.47318 -37.89283,9.47318 -37.89292,0 -37.89292,0 -37.89292,-9.47318 z M 48.870402,125.4376 c 0,-9.47318 0,-9.47318 9.473184,-9.47318 9.473274,0 9.473274,0 9.473274,9.47318 0,9.47328 0,9.47328 -9.473274,9.47328 -9.473184,0 -9.473184,0 -9.473184,-9.47328 z m 37.892828,0 c 0,-9.47318 0,-9.47318 37.89292,-9.47318 37.89283,0 37.89283,0 37.89283,9.47318 0,9.47328 0,9.47328 -37.89283,9.47328 -37.89292,0 -37.89292,0 -37.89292,-9.47328 z m 56.73116,-64.997916 c 1.56205,-1.882231 2.4918,-5.878704 2.06617,-8.881161 -0.77247,-5.448068 -0.85303,-5.459078 -39.85087,-5.459078 -38.998107,0 -39.078578,0.009 -39.850876,5.459078 -1.576999,11.124298 2.241527,12.303244 39.850876,12.303244 27.58102,0 35.54308,-0.721457 37.7847,-3.422083 z"
       id="path84" />
  </g>
</svg>
