<?xml version="1.0" encoding="UTF-8" standalone="no"?>
<svg
   xmlns:dc="http://purl.org/dc/elements/1.1/"
   xmlns:cc="http://creativecommons.org/ns#"
   xmlns:rdf="http://www.w3.org/1999/02/22-rdf-syntax-ns#"
   xmlns:svg="http://www.w3.org/2000/svg"
   xmlns="http://www.w3.org/2000/svg"
   xmlns:sodipodi="http://sodipodi.sourceforge.net/DTD/sodipodi-0.dtd"
   xmlns:inkscape="http://www.inkscape.org/namespaces/inkscape"
   width="210mm"
   height="297mm"
   viewBox="0 0 210 297"
   version="1.1"
   id="svg145"
   inkscape:version="1.0.1 (3bc2e813f5, 2020-09-07)"
   sodipodi:docname="iconFinish.svg">
  <defs
     id="defs139" />
  <sodipodi:namedview
     id="base"
     pagecolor="#ffffff"
     bordercolor="#666666"
     borderopacity="1.0"
     inkscape:pageopacity="0.0"
     inkscape:pageshadow="2"
     inkscape:zoom="0.35"
     inkscape:cx="389.44063"
     inkscape:cy="519.09276"
     inkscape:document-units="mm"
     inkscape:current-layer="layer1"
     inkscape:document-rotation="0"
     showgrid="false"
     inkscape:window-width="1343"
     inkscape:window-height="1208"
     inkscape:window-x="707"
     inkscape:window-y="58"
     inkscape:window-maximized="0" />
  <metadata
     id="metadata142">
    <rdf:RDF>
      <cc:Work
         rdf:about="">
        <dc:format>image/svg+xml</dc:format>
        <dc:type
           rdf:resource="http://purl.org/dc/dcmitype/StillImage" />
        <dc:title />
      </cc:Work>
    </rdf:RDF>
  </metadata>
  <g
     inkscape:label="Capa 1"
     inkscape:groupmode="layer"
     id="layer1">
    <path
       id="path86"
       style="fill:#ffffff;stroke-width:1.68766"
       d="M 163.97252,76.569815 121.88576,117.15907 79.802407,157.74834 60.438398,139.11327 41.07776,120.4814 22.636481,138.33289 c -10.14201,9.81779 -18.4379051,18.57761 -18.4379051,19.46727 0,0.88971 17.5805571,18.59928 39.0702131,39.35234 l 39.073592,37.73006 61.427289,-59.26324 61.43059,-59.26324 -20.61556,-19.891539 z m 0.8556,22.592072 17.84067,16.514193 -0.40582,0.40166 c 0.003,0.002 0.0259,-0.0125 0.0324,-0.0125 0.70256,0.67792 -21.10234,22.8394 -48.45532,49.24776 -17.8871,17.26938 -33.19944,31.79893 -42.338456,40.26223 l -8.401861,8.28298 -0.617497,-0.5959 c -0.449316,-0.1153 -0.790074,-0.44363 -0.909295,-0.87749 l -7.465744,-7.20472 c -1.239017,-1.04054 -2.833586,-2.50536 -4.499583,-4.16417 l -5.700862,-5.67636 0.0033,-0.003 -7.133571,-6.88415 c -1.259789,-1.06278 -2.863712,-2.53506 -4.509644,-4.17387 l -5.828327,-5.80263 -0.03246,-0.0313 -6.804756,-6.56357 c -1.260634,-1.06316 -2.864361,-2.53888 -4.512957,-4.18033 l -5.861894,-5.83501 8.099933,-7.81673 8.099933,-7.81671 34.637772,33.08666 z" />
  </g>
</svg>
