<?xml version="1.0" encoding="utf-8"?>
<!-- Generator: Adobe Illustrator 23.0.5, SVG Export Plug-In . SVG Version: 6.00 Build 0)  -->
<svg version="1.1" xmlns="http://www.w3.org/2000/svg" xmlns:xlink="http://www.w3.org/1999/xlink" x="0px" y="0px"
	 viewBox="0 0 500 500" style="enable-background:new 0 0 500 500;" xml:space="preserve">
<style type="text/css">
	.st0{fill:#F3F4F6;}
	.st1{fill:#DCE6EF;}
	.st2{fill:#6AA5FE;}
	.st3{fill:none;stroke:#1A55B5;stroke-width:0.8675;stroke-linecap:round;stroke-linejoin:round;stroke-miterlimit:10;}
	.st4{fill:#FFC957;}
	.st5{fill:none;stroke:#6AA5FE;stroke-width:0.8675;stroke-linecap:round;stroke-linejoin:round;stroke-miterlimit:10;}
	.st6{fill:#1A55B5;}
	.st7{fill:none;stroke:#2A294F;stroke-width:0.7798;stroke-linecap:round;stroke-linejoin:round;stroke-miterlimit:10;}
	.st8{fill:none;stroke:#6AA5FE;stroke-linecap:round;stroke-linejoin:round;stroke-miterlimit:10;}
	.st9{fill:#527EE9;}
	.st10{fill:#2C6BC6;}
	.st11{fill:#CDE1F9;}
	.st12{fill:none;stroke:#1A55B5;stroke-miterlimit:10;}
	.st13{fill:none;stroke:#F3F4F6;stroke-width:4;stroke-miterlimit:10;}
	.st14{fill:none;stroke:#FF746F;stroke-width:4;stroke-miterlimit:10;}
	.st15{fill:#FE9280;}
	.st16{fill:#E86767;}
	.st17{fill:#FF746F;}
	.st18{fill:#FFFFFF;}
	.st19{opacity:0.2;fill:#777470;}
	.st20{fill:#FFF4DD;}
	.st21{fill:#2A294F;}
	.st22{fill:#D3EAF5;}
	.st23{opacity:0.05;fill:#777470;}
	.st24{opacity:0.15;fill:#777470;}
</style>
<g id="BACKGROUND">
	<rect class="st0" width="500" height="500"/>
</g>
<g id="OBJECTS">
	<g>
		<g>
			<path class="st1" d="M459.66,351.49c-3.67-9.42-6.41-19.42-9.4-29.98c-2.02-7.12-5.27-15.08-12.31-17.32
				c-6.86-2.18-14.24,2.34-18.45,8.17c-4.22,5.83-6.34,12.89-9.95,19.12c-6.54,11.28-18.11,16.01-27.68,6.09
				c-13.67-14.17-19.82-33.48-28.49-50.76c-6.29-12.54-11.56-27.23-19.49-38.79c-12.09-17.63-28.67-32.66-50.71-32.66
				c-13.97,2.12-26.28,14.49-34.62,29.96c-8.33,15.47-13.19,33.86-17.33,52.21c-7.53,33.37-13.05,67.51-18.56,101.61
				c0,0,278.11-3.24,278.12-3.24c-1.11,0.01-7.93-9.1-9.23-10.36C470.88,375.2,464.47,363.84,459.66,351.49z"/>
			<g>
				<path class="st2" d="M406.87,367.39c-0.55,10.81-12.31,29.71-23.12,29.17c-10.81-0.54-16.58-20.33-16.03-31.14
					c0.55-10.81,12.06-64.91,22.87-64.37C401.4,301.59,407.41,356.58,406.87,367.39z"/>
				<line class="st3" x1="390.07" y1="308.08" x2="384.61" y2="395.69"/>
				<path class="st4" d="M382.12,365.14c-2.46,5.41-4.34,11.08-5.47,17c-0.57,3-0.94,6.25,0.42,8.98c1.48,2.99,4.77,4.73,8.06,5.27
					c8.04,1.32,16.07-3.6,20.78-10.25c4.71-6.64,6.75-14.76,8.62-22.69c1.47-6.24,2.92-12.57,5.7-18.39
					c1.19-2.49,8.17-12.12,4.87-14.61c-4.51-3.55-17.58,0.31-25.95,9.45C392.27,347.42,386.33,355.89,382.12,365.14z"/>
				<path class="st5" d="M385.13,396.38c0,0,9.7-37.77,33.13-59.43"/>
			</g>
			<g>
				<path class="st6" d="M438.95,356.23c-0.83,1.49-2.39,2.5-3.8,3.3c-1.74,0.98-3.6,1.84-5.39,2.68c-2.3,1.07-4.68,2.18-6.88,3.56
					c-1.6,1.01-3.03,2.14-4.22,3.36c1.89-4.29,4.09-8.03,6.69-11.38c3.42-4.4,6.93-6.63,10.44-6.63c0.08,0,0.16,0,0.24,0
					c1.08,0.03,1.93,0.3,2.51,0.8C439.73,352.94,439.69,354.91,438.95,356.23z"/>
				<path class="st6" d="M442.87,380.65c-1.39,0.99-3.23,1.24-4.85,1.36c-1.99,0.14-4.04,0.13-6.02,0.11
					c-2.54-0.02-5.17-0.04-7.74,0.27c-1.88,0.22-3.65,0.64-5.25,1.23c3.54-3.07,7.14-5.51,10.92-7.42c4.98-2.52,9.1-3.03,12.27-1.53
					c0.07,0.03,0.15,0.07,0.22,0.11c0.97,0.49,1.62,1.1,1.93,1.8C444.98,378.02,444.1,379.78,442.87,380.65z"/>
				<path class="st6" d="M433.62,392.67c-1.15-0.16-2.19-0.9-3.05-1.6c-1.06-0.86-2.07-1.83-3.05-2.76
					c-1.26-1.2-2.55-2.44-3.98-3.49c-1.04-0.77-2.12-1.39-3.19-1.85c3.2,0.13,6.13,0.6,8.91,1.43c3.65,1.08,5.95,2.76,6.82,4.99
					c0.02,0.05,0.04,0.1,0.06,0.16c0.25,0.7,0.29,1.3,0.12,1.8C435.91,392.35,434.64,392.81,433.62,392.67z"/>
				<path class="st7" d="M407.32,396.6c0,0,0.11-23.11,28.33-42.73"/>
				<path class="st7" d="M407.32,396.6c0,0,8.67-18.57,32.16-18.57"/>
				<path class="st7" d="M420.1,383.19c0,0,4.55-0.33,14.05,6.83"/>
			</g>
		</g>
		<g>
			<path class="st1" d="M164.8,396.8c-6.52-24.66-13.08-49.33-20.75-73.21c-4.33-13.47-9.1-26.88-15.73-37.65
				c-6.63-10.77-15.41-18.72-24.23-18.67c-13.58,2.63-22.35,16.04-28.1,30.9c-3.77,9.74-5.6,21.54-8.26,31.84
				c-3.67,14.18-5.6,29.61-12.65,42.01c-4.94,8.69-12.53,6.47-17.65-1.33c-2.82-4.31-4.82-9.43-7.98-13.36
				c-3.16-3.93-8.15-6.49-12.16-4.01c-4.13,2.55-5.36,8.99-5.92,14.65c-0.82,8.39-1.55,16.32-2.9,23.93
				c-0.29,1.66-0.62,3.29-0.98,4.92H164.8z"/>
			<path class="st4" d="M106.47,362.76c-4.08-4.7-9.24-8.76-10.86-14.69c-1.19-4.33-0.25-8.92,0.21-13.39
				c0.46-4.47,0.3-9.41-2.59-12.85c-2.38-2.84-6.15-4.07-9.77-4.85c-3.62-0.78-7.4-1.27-10.61-3.11c-5.22-2.99-4.18-8.08-6.98-12.54
				c-3.14-5.01-10.46-11.4-16.72-8.07c-6.64,3.52-5.59,14.22-1.17,18.94c2.93,3.13,6.68,6.14,7.11,10.4
				c0.65,6.42-6.71,12.21-4.69,18.34c1.5,4.53,7.2,6.08,10.02,9.93c2.79,3.81,2.23,9.14,0.58,13.56c-1.64,4.42-4.23,8.51-5.25,13.12
				c-2.09,9.42,5.3,15.94,13.73,18.04c7.74,1.93,24.44,1.02,24.44,1.02c5.96-2.08,12.57-7.32,15.84-13.04
				c2.48-4.32,2.82-9.8,0.9-14.4C109.68,366.79,108.17,364.72,106.47,362.76z"/>
			<path class="st8" d="M56.57,303.41c0,0,28.51,44.04,31.61,92.94"/>
			<g>
				<path class="st2" d="M31.17,362.81c0.44-0.38,1.08-0.58,1.9-0.6c0.06,0,0.12,0,0.18,0c2.65,0,5.31,1.69,7.89,5.02
					c1.97,2.53,3.63,5.36,5.06,8.6c-0.9-0.92-1.98-1.78-3.19-2.54c-1.66-1.04-3.46-1.88-5.2-2.69c-1.36-0.63-2.76-1.28-4.08-2.03
					c-1.07-0.6-2.25-1.37-2.87-2.49C30.31,365.08,30.27,363.59,31.17,362.81z"/>
				<path class="st2" d="M26.79,381.46c0.24-0.53,0.73-0.99,1.46-1.36c0.05-0.03,0.11-0.05,0.16-0.08c2.4-1.14,5.52-0.75,9.28,1.16
					c2.86,1.45,5.58,3.29,8.25,5.61c-1.21-0.45-2.55-0.76-3.97-0.93c-1.95-0.23-3.94-0.22-5.86-0.21c-1.5,0.01-3.04,0.02-4.55-0.09
					c-1.22-0.09-2.62-0.28-3.66-1.02C26.97,383.88,26.3,382.55,26.79,381.46z"/>
				<path class="st2" d="M32.9,392.62c-0.13-0.37-0.1-0.83,0.09-1.36c0.01-0.04,0.03-0.08,0.04-0.12c0.66-1.69,2.39-2.96,5.16-3.78
					c2.1-0.62,4.32-0.98,6.74-1.08c-0.81,0.35-1.63,0.82-2.41,1.4c-1.08,0.8-2.06,1.74-3.01,2.64c-0.74,0.71-1.5,1.44-2.3,2.09
					c-0.65,0.53-1.43,1.09-2.3,1.21C34.12,393.73,33.17,393.38,32.9,392.62z"/>
				<path class="st7" d="M54.78,396.6c0,0-0.08-17.48-21.42-32.31"/>
				<path class="st7" d="M54.78,396.6c0,0-6.55-14.04-24.32-14.04"/>
				<path class="st7" d="M45.12,386.46c0,0-3.44-0.25-10.62,5.17"/>
			</g>
		</g>
		<g>
			<path class="st2" d="M283.74,396.6H95.58c-5.22,0-9.45-4.23-9.45-9.45V132c0-5.22,4.23-9.45,9.45-9.45h188.16
				c5.22,0,9.45,4.23,9.45,9.45v255.15C293.19,392.36,288.96,396.6,283.74,396.6z"/>
			<path class="st9" d="M86.13,189.31v197.84c0,5.22,4.23,9.45,9.45,9.45h188.16c5.22,0,9.45-4.23,9.45-9.45V348.1L86.13,189.31z"/>
			<path class="st0" d="M277.3,383.95H102.02c-2.13,0-3.86-1.73-3.86-3.86V139.05c0-2.13,1.73-3.86,3.86-3.86H277.3
				c2.13,0,3.86,1.73,3.86,3.86v241.04C281.16,382.22,279.43,383.95,277.3,383.95z"/>
			<g>
				<path class="st6" d="M205.36,117.37c0.01-0.26,0.04-0.51,0.04-0.78c0-8.69-7.05-15.74-15.74-15.74s-15.74,7.05-15.74,15.74
					c0,0.26,0.03,0.52,0.04,0.78h-23.13v23.99h77.66v-23.99H205.36z"/>
				<polygon class="st10" points="150.83,117.37 150.83,141.36 228.49,141.36 				"/>
				
					<ellipse transform="matrix(0.923 -0.3848 0.3848 0.923 -30.261 81.948)" class="st9" cx="189.66" cy="116.6" rx="8.84" ry="8.84"/>
				<path class="st2" d="M183.41,110.35c-3.45,3.45-3.45,9.05,0,12.5c3.45,3.45,9.05,3.45,12.5,0L183.41,110.35z"/>
				<rect x="150.83" y="141.36" class="st11" width="77.66" height="1.65"/>
			</g>
		</g>
		<g>
			<g>
				<rect x="119.31" y="174.58" class="st12" width="29.45" height="29.45"/>
				<g>
					<g>
						<polyline class="st13" points="127.93,190.82 136.93,197.89 155.25,180.24 						"/>
					</g>
					<g>
						<polyline class="st14" points="125.93,188.82 134.93,195.89 153.25,178.24 						"/>
					</g>
				</g>
				<g>
					<path class="st2" d="M258.88,182.94H162.9c-0.63,0-1.13-0.51-1.13-1.13l0,0c0-0.63,0.51-1.13,1.13-1.13h95.98
						c0.63,0,1.13,0.51,1.13,1.13l0,0C260.01,182.43,259.5,182.94,258.88,182.94z"/>
					<path class="st2" d="M258.88,187.94H162.9c-0.63,0-1.13-0.51-1.13-1.13l0,0c0-0.63,0.51-1.13,1.13-1.13h95.98
						c0.63,0,1.13,0.51,1.13,1.13l0,0C260.01,187.43,259.5,187.94,258.88,187.94z"/>
					<path class="st2" d="M258.88,192.94H162.9c-0.63,0-1.13-0.51-1.13-1.13l0,0c0-0.63,0.51-1.13,1.13-1.13h95.98
						c0.63,0,1.13,0.51,1.13,1.13l0,0C260.01,192.43,259.5,192.94,258.88,192.94z"/>
					<path class="st2" d="M258.88,197.94H162.9c-0.63,0-1.13-0.51-1.13-1.13l0,0c0-0.63,0.51-1.13,1.13-1.13h95.98
						c0.63,0,1.13,0.51,1.13,1.13l0,0C260.01,197.43,259.5,197.94,258.88,197.94z"/>
				</g>
			</g>
			<g>
				<rect x="119.31" y="222" class="st12" width="29.45" height="29.45"/>
				<g>
					<g>
						<polyline class="st13" points="127.93,238.23 136.93,245.31 155.25,227.66 						"/>
					</g>
					<g>
						<polyline class="st14" points="125.93,236.23 134.93,243.31 153.25,225.66 						"/>
					</g>
				</g>
				<g>
					<path class="st2" d="M258.88,230.36H162.9c-0.63,0-1.13-0.51-1.13-1.13l0,0c0-0.63,0.51-1.13,1.13-1.13h95.98
						c0.63,0,1.13,0.51,1.13,1.13l0,0C260.01,229.85,259.5,230.36,258.88,230.36z"/>
					<path class="st2" d="M258.88,235.36H162.9c-0.63,0-1.13-0.51-1.13-1.13l0,0c0-0.63,0.51-1.13,1.13-1.13h95.98
						c0.63,0,1.13,0.51,1.13,1.13l0,0C260.01,234.85,259.5,235.36,258.88,235.36z"/>
					<path class="st2" d="M258.88,240.36H162.9c-0.63,0-1.13-0.51-1.13-1.13l0,0c0-0.63,0.51-1.13,1.13-1.13h95.98
						c0.63,0,1.13,0.51,1.13,1.13l0,0C260.01,239.85,259.5,240.36,258.88,240.36z"/>
					<path class="st2" d="M258.88,245.36H162.9c-0.63,0-1.13-0.51-1.13-1.13l0,0c0-0.63,0.51-1.13,1.13-1.13h95.98
						c0.63,0,1.13,0.51,1.13,1.13l0,0C260.01,244.85,259.5,245.36,258.88,245.36z"/>
				</g>
			</g>
			<g>
				<rect x="119.31" y="269.42" class="st12" width="29.45" height="29.45"/>
				<g>
					<g>
						<polyline class="st13" points="127.93,285.65 136.93,292.72 155.25,275.08 						"/>
					</g>
					<g>
						<polyline class="st14" points="125.93,283.65 134.93,290.72 153.25,273.08 						"/>
					</g>
				</g>
				<g>
					<path class="st2" d="M258.88,277.78H162.9c-0.63,0-1.13-0.51-1.13-1.13l0,0c0-0.63,0.51-1.13,1.13-1.13h95.98
						c0.63,0,1.13,0.51,1.13,1.13l0,0C260.01,277.27,259.5,277.78,258.88,277.78z"/>
					<path class="st2" d="M258.88,282.78H162.9c-0.63,0-1.13-0.51-1.13-1.13l0,0c0-0.63,0.51-1.13,1.13-1.13h95.98
						c0.63,0,1.13,0.51,1.13,1.13l0,0C260.01,282.27,259.5,282.78,258.88,282.78z"/>
					<path class="st2" d="M258.88,287.78H162.9c-0.63,0-1.13-0.51-1.13-1.13l0,0c0-0.63,0.51-1.13,1.13-1.13h95.98
						c0.63,0,1.13,0.51,1.13,1.13l0,0C260.01,287.27,259.5,287.78,258.88,287.78z"/>
					<path class="st2" d="M258.88,292.78H162.9c-0.63,0-1.13-0.51-1.13-1.13l0,0c0-0.63,0.51-1.13,1.13-1.13h95.98
						c0.63,0,1.13,0.51,1.13,1.13l0,0C260.01,292.27,259.5,292.78,258.88,292.78z"/>
				</g>
			</g>
			<g>
				<rect x="119.31" y="316.84" class="st12" width="29.45" height="29.45"/>
				<g>
					<g>
						<polyline class="st13" points="127.93,333.07 136.93,340.14 155.25,322.5 						"/>
					</g>
					<g>
						<polyline class="st14" points="125.93,331.07 134.93,338.14 153.25,320.5 						"/>
					</g>
				</g>
				<g>
					<path class="st2" d="M258.88,325.2H162.9c-0.63,0-1.13-0.51-1.13-1.13l0,0c0-0.63,0.51-1.13,1.13-1.13h95.98
						c0.63,0,1.13,0.51,1.13,1.13l0,0C260.01,324.69,259.5,325.2,258.88,325.2z"/>
					<path class="st2" d="M258.88,330.2H162.9c-0.63,0-1.13-0.51-1.13-1.13l0,0c0-0.63,0.51-1.13,1.13-1.13h95.98
						c0.63,0,1.13,0.51,1.13,1.13l0,0C260.01,329.69,259.5,330.2,258.88,330.2z"/>
					<path class="st2" d="M258.88,335.2H162.9c-0.63,0-1.13-0.51-1.13-1.13l0,0c0-0.63,0.51-1.13,1.13-1.13h95.98
						c0.63,0,1.13,0.51,1.13,1.13l0,0C260.01,334.69,259.5,335.2,258.88,335.2z"/>
					<path class="st2" d="M258.88,340.2H162.9c-0.63,0-1.13-0.51-1.13-1.13l0,0c0-0.63,0.51-1.13,1.13-1.13h95.98
						c0.63,0,1.13,0.51,1.13,1.13l0,0C260.01,339.69,259.5,340.2,258.88,340.2z"/>
				</g>
			</g>
		</g>
		<g>
			<path class="st15" d="M301.6,199.84c-0.61,0.47-6.16,3.75-6.16,3.75l-3.94-5.04l1.17-5.75l8.48,0.53c0,0,1.48,4.29,1.48,4.29
				C302.98,198.64,302.36,199.27,301.6,199.84z"/>
			<path class="st16" d="M301.15,193.32l1.28,3.76l-3.91,1.57c-0.74,0.32-1.58,0.38-2.36,0.17c-1.72-0.46-2.85-2.13-2.63-3.9
				l0.25-2.07L301.15,193.32z"/>
			<path class="st17" d="M299.23,198.35l3.39,0.49l1.86-3.18c0.36-0.57,0.19-1.33-0.38-1.7l0,0c-0.57-0.36-1.33-0.19-1.7,0.38
				L299.23,198.35z"/>
			<polygon class="st18" points="296.66,211.95 289.67,213.72 287.17,233.96 295.36,234.29 			"/>
			<g>
				<path class="st15" d="M388.56,228.38l-12.22-1.54l2.8-22.21l12.22,1.54c6.13,0.77,10.48,6.37,9.71,12.51l0,0
					C400.3,224.81,394.7,229.16,388.56,228.38z"/>
				<path class="st19" d="M389.2,223.32l-12.22-1.54l-0.64,5.06l12.22,1.54c6.13,0.77,11.73-3.57,12.51-9.71
					c0.11-0.87,0.11-1.73,0.03-2.57C399.33,220.88,394.46,223.99,389.2,223.32z"/>
				<polygon class="st4" points="374.86,226.66 245.22,209.94 248.02,187.72 377.65,204.44 				"/>
				<polygon class="st20" points="222.13,195.75 245.22,209.94 248.02,187.72 				"/>
				<polygon class="st19" points="222.13,195.75 245.22,209.94 245.91,204.5 				"/>
				<polygon class="st21" points="229.84,193.36 222.13,195.75 229.01,199.97 				"/>
				
					<rect x="376.21" y="205.03" transform="matrix(0.9922 0.1249 -0.1249 0.9922 29.9962 -45.9725)" class="st22" width="10.81" height="22.39"/>
				
					<rect x="383.3" y="204.52" transform="matrix(0.9922 0.1249 -0.1249 0.9922 30.079 -46.4096)" class="st22" width="3.7" height="24.31"/>
				<polygon class="st19" points="381.92,227.55 245.22,209.94 245.91,204.5 382.6,222.11 				"/>
				<polygon class="st23" points="384.03,210.77 247.33,193.16 248.02,187.72 384.71,205.33 				"/>
				
					<rect x="382.25" y="221.33" transform="matrix(0.9922 0.1249 -0.1249 0.9922 31.1165 -46.2124)" class="st24" width="3.7" height="7.43"/>
			</g>
			<path class="st16" d="M332.33,271.64l1.84-4.73l6.17-0.48c1.14-0.12,2.14,0.57,2.25,1.54l0,0c0.1,0.97-0.73,1.86-1.87,1.98
				L332.33,271.64z"/>
			<path class="st17" d="M329.15,266.93l3.18,4.71l6.05-1.22l-6.74-10.09l-1.31,0.86C328.42,262.45,327.89,265.02,329.15,266.93z"/>
			<path class="st6" d="M335.1,191.06c-6.29-9.16-22.12-6.72-21.71,7.96c0,0.04,0,0.09,0.01,0.13c-0.04,1.86,0.02,3.76-0.46,5.51
				c-0.25,0.89-0.67,1.71-1.32,2.3c-0.64,0.6-1.47,0.96-2.34,1.14c-0.88,0.2-1.84,0.24-2.82,0.44c-0.99,0.2-1.95,0.56-2.82,1.08
				c-1.75,1.02-3.18,2.69-3.83,4.66c-1.25,3.92-0.25,8.46,2.7,11.41c0.74,0.72,1.6,1.34,2.55,1.78c0.94,0.46,2.01,0.63,2.88,0.81
				c1.83,0.4,3.68,0.93,5.56,1.3l0.05-0.16c-1.74-0.8-3.45-1.64-5.29-2.28c-0.96-0.34-1.78-0.53-2.53-0.99
				c-0.74-0.44-1.43-0.98-2.01-1.63c-1.16-1.29-2.01-2.88-2.49-4.58c-0.48-1.7-0.58-3.53-0.1-5.22c0.47-1.68,1.6-3.14,3.1-4.11
				c0.74-0.49,1.58-0.84,2.45-1.06c0.88-0.22,1.84-0.31,2.81-0.57c0.97-0.25,1.93-0.74,2.64-1.5c0.72-0.75,1.13-1.72,1.33-2.68
				c0.14-0.68,0.21-1.37,0.23-2.05c0.17,2.74-0.07,5.52-2.88,6.57c-1.62,0.61-3.2,0.61-4.71,1.61c-1.48,0.99-2.65,2.45-3.22,4.13
				c-1.76,5.19,2.83,11.91,8.24,12.49c2.24,0.24,4.48,0.78,6.69,1.18c0.62,0.11,9.32,1.89,9.39,1.69l10.07-29.81L335.1,191.06z"/>
			<polygon class="st18" points="334.62,264.8 355.04,250.55 352.19,242.66 331.63,260.33 			"/>
			<path class="st18" d="M349.59,248.6c0.97,2.04,3.41,2.92,5.45,1.95c2.04-0.97,2.92-3.41,1.95-5.45
				c-0.97-2.04-3.41-2.92-5.45-1.95C349.5,244.11,348.62,246.55,349.59,248.6z"/>
			<path class="st18" d="M350.61,250.08l5.82-5.76l-16.81-18.91c-1.91-2.58-5.66-2.86-7.94-0.61l0,0
				c-2.28,2.26-2.03,8.52,0.52,10.46L350.61,250.08z"/>
			
				<rect x="322.76" y="209.79" transform="matrix(-0.9964 -0.0844 0.0844 -0.9964 632.9398 460.8037)" class="st17" width="6.91" height="14.47"/>
			<path class="st18" d="M290.83,230.9c-2.26,0.15-3.96,2.1-3.81,4.36c0.15,2.26,2.1,3.96,4.36,3.81c2.26-0.15,3.96-2.1,3.81-4.36
				C295.04,232.45,293.08,230.75,290.83,230.9z"/>
			<path class="st18" d="M288.25,231.5l4.15,7.37l25.35-7.37c3.11-0.79,4.79-6.67,3.57-9.63l0,0c-1.22-2.96-4.79-4.16-7.55-2.52
				L288.25,231.5z"/>
			<path class="st18" d="M327.04,259.93l12.83-31.48c0.65-2.58-1.09-5.14-3.72-5.5l-18.42-4.18c-2.63-0.36-4.99,1.65-5.05,4.31
				l-6.3,34.33L327.04,259.93z"/>
			<path class="st17" d="M324.97,192.74c-2.13,2.69-5.95,3.82-6.85,6.29l-0.19,1.14c0,0.05,0,0.1,0,0.16l-0.02-0.04l-0.58,3.45
				c-0.74,4.37,2.21,8.51,6.58,9.25c4.37,0.74,8.51-2.21,9.25-6.58l0.66-3.89C333.36,198.58,326.13,198.27,324.97,192.74z"/>
			<path class="st17" d="M332.32,204.58c-0.17,1.01,0.51,1.98,1.53,2.15c1.01,0.17,1.98-0.51,2.15-1.53
				c0.17-1.01-0.51-1.98-1.53-2.15C333.45,202.88,332.49,203.56,332.32,204.58z"/>
			<polygon class="st6" points="315.45,258.52 324.68,281.31 315.86,387.78 309.09,387.78 301.11,280.65 306.38,257.42 			"/>
			<polygon class="st9" points="315.45,258.52 315.45,281.31 357,387.78 362.1,387.78 339.87,277.29 327.04,259.93 			"/>
			<polygon class="st17" points="312.88,393.34 310.05,393.34 310.05,387.78 313.72,387.78 			"/>
			<polygon class="st21" points="309.95,392.08 311.61,392.81 313.15,392.08 314.53,396.59 301.72,396.59 306.54,394.34 			"/>
			<polygon class="st17" points="360.36,393.34 363.19,393.34 361.51,387.78 357.84,387.78 			"/>
			<polygon class="st21" points="363.29,392.08 361.63,392.81 360.09,392.08 358.71,396.59 371.52,396.59 366.7,394.34 			"/>
			<path class="st18" d="M318.86,235.94c0,3.21-2.6,5.81-5.81,5.81c-3.21,0-5.81-2.6-5.81-5.81c0-3.21,2.6-5.81,5.81-5.81
				C316.26,230.13,318.86,232.73,318.86,235.94z"/>
			<polygon class="st17" points="318.26,218.93 319,231.42 329.79,220.42 			"/>
			<path class="st6" d="M341.75,193.71c-0.92-1.18-2.05-2.13-3.3-2.78c-2.03-1.07-4.32-0.95-6.18-2.55l1.45,14.65
				c2.67-0.76,2.51,4.99-0.57,3.4c0,0-6.11,2.62-8.43,8.34c-1.59,3.84-1.86,8.33-1.44,10.89c0.75,4.59,4.64,6.97,9.07,5.62
				c2.64-0.81,4.79-2.8,6.32-5.11c5.35-8.08,8.91-21.36,4.34-30.48C342.65,194.97,342.23,194.31,341.75,193.71z"/>
			<path class="st17" d="M292.59,191.95l-0.15,0.93c-0.31,1.94,1.01,3.77,2.95,4.09l1.52,0.24c1.94,0.31,3.77-1.01,4.09-2.95
				l0.15-0.93L292.59,191.95z"/>
			<path class="st18" d="M325.22,204.48c-0.48-0.3-3.64-0.89-4.02-0.68c-0.41,0.23-0.58,0.77-0.47,1.23
				c0.11,0.46,0.45,0.83,0.83,1.1c0.88,0.6,2.08,0.7,3.05,0.25c0.37-0.17,0.71-0.43,0.87-0.81
				C325.65,205.19,325.56,204.69,325.22,204.48z"/>
		</g>
		<line class="st7" x1="8.38" y1="396.59" x2="492.5" y2="396.59"/>
	</g>
</g>
</svg>
