<?xml version="1.0" encoding="utf-8"?>
<!-- Generator: Adobe Illustrator 23.0.5, SVG Export Plug-In . SVG Version: 6.00 Build 0)  -->
<svg version="1.1" id="Capa_1" xmlns="http://www.w3.org/2000/svg" xmlns:xlink="http://www.w3.org/1999/xlink" x="0px" y="0px"
	 viewBox="0 0 512 512" style="enable-background:new 0 0 512 512;" xml:space="preserve">
<style type="text/css">
	.st0{fill:#7F00B4;}
	.st1{fill:#50006A;}
	.st2{fill:#FFFFFF;}
</style>
<circle class="st0" cx="256" cy="256" r="256"/>
<path class="st1" d="M363.7,141l-15.5-15.5H107.8v261.1l124.3,124.3c7.9,0.7,15.8,1.1,23.9,1.1c137.8,0,250.2-108.9,255.8-245.3
	L404.2,159.1l-33.4-26.7L363.7,141z"/>
<g>
	<polygon class="st2" points="339.3,356.9 137.5,356.9 137.5,155.1 323.5,155.1 348.2,125.4 107.8,125.4 107.8,386.6 369,386.6 
		369,240.7 339.3,276.3 	"/>
	<polygon class="st2" points="182.1,203.7 152.3,233.5 256.6,337.8 299.6,288.6 299.6,288.6 404.2,159.1 370.8,132.4 253.6,273.5 	
		"/>
</g>
</svg>
